<mxfile host="app.diagrams.net" modified="2021-01-13T10:04:44.970Z" agent="5.0 (Windows NT 10.0; Win64; x64) AppleWebKit/537.36 (KHTML, like Gecko) Chrome/87.0.4280.141 Safari/537.36" etag="wQ6H1rpdwIv224LyqMP2" version="14.1.9" type="github">
  <diagram id="ULMB9vnDO_LU3mVfdlwj" name="Page-1">
    <mxGraphModel dx="782" dy="469" grid="1" gridSize="10" guides="1" tooltips="1" connect="1" arrows="1" fold="1" page="1" pageScale="1" pageWidth="827" pageHeight="1169" math="0" shadow="0">
      <root>
        <mxCell id="0" />
        <mxCell id="1" parent="0" />
        <mxCell id="TaF8O7Wm-DNf2mMRTzkj-1" value="" style="ellipse;whiteSpace=wrap;html=1;" vertex="1" parent="1">
          <mxGeometry x="280" y="40" width="120" height="80" as="geometry" />
        </mxCell>
        <mxCell id="TaF8O7Wm-DNf2mMRTzkj-2" value="" style="rounded=0;whiteSpace=wrap;html=1;" vertex="1" parent="1">
          <mxGeometry x="280" y="160" width="120" height="60" as="geometry" />
        </mxCell>
        <mxCell id="TaF8O7Wm-DNf2mMRTzkj-3" value="" style="rounded=0;whiteSpace=wrap;html=1;" vertex="1" parent="1">
          <mxGeometry x="280" y="260" width="120" height="60" as="geometry" />
        </mxCell>
        <mxCell id="TaF8O7Wm-DNf2mMRTzkj-4" value="" style="shape=hexagon;perimeter=hexagonPerimeter2;whiteSpace=wrap;html=1;fixedSize=1;" vertex="1" parent="1">
          <mxGeometry x="240" y="360" width="200" height="50" as="geometry" />
        </mxCell>
        <mxCell id="TaF8O7Wm-DNf2mMRTzkj-6" value="" style="shape=hexagon;perimeter=hexagonPerimeter2;whiteSpace=wrap;html=1;fixedSize=1;" vertex="1" parent="1">
          <mxGeometry x="240" y="440" width="200" height="50" as="geometry" />
        </mxCell>
        <mxCell id="TaF8O7Wm-DNf2mMRTzkj-7" value="" style="rounded=0;whiteSpace=wrap;html=1;" vertex="1" parent="1">
          <mxGeometry x="280" y="530" width="120" height="40" as="geometry" />
        </mxCell>
        <mxCell id="TaF8O7Wm-DNf2mMRTzkj-8" value="" style="rhombus;whiteSpace=wrap;html=1;" vertex="1" parent="1">
          <mxGeometry x="280" y="740" width="120" height="80" as="geometry" />
        </mxCell>
        <mxCell id="TaF8O7Wm-DNf2mMRTzkj-9" value="" style="rounded=0;whiteSpace=wrap;html=1;" vertex="1" parent="1">
          <mxGeometry x="280" y="840" width="120" height="100" as="geometry" />
        </mxCell>
        <mxCell id="TaF8O7Wm-DNf2mMRTzkj-10" value="" style="rhombus;whiteSpace=wrap;html=1;" vertex="1" parent="1">
          <mxGeometry x="280" y="980" width="120" height="80" as="geometry" />
        </mxCell>
        <mxCell id="TaF8O7Wm-DNf2mMRTzkj-11" value="" style="rounded=0;whiteSpace=wrap;html=1;" vertex="1" parent="1">
          <mxGeometry x="280" y="1090" width="120" height="50" as="geometry" />
        </mxCell>
        <mxCell id="TaF8O7Wm-DNf2mMRTzkj-12" value="" style="rhombus;whiteSpace=wrap;html=1;" vertex="1" parent="1">
          <mxGeometry x="280" y="1180" width="120" height="80" as="geometry" />
        </mxCell>
        <mxCell id="TaF8O7Wm-DNf2mMRTzkj-13" value="" style="rounded=0;whiteSpace=wrap;html=1;" vertex="1" parent="1">
          <mxGeometry x="280" y="1290" width="120" height="50" as="geometry" />
        </mxCell>
        <mxCell id="TaF8O7Wm-DNf2mMRTzkj-14" value="" style="ellipse;whiteSpace=wrap;html=1;" vertex="1" parent="1">
          <mxGeometry x="280" y="1380" width="120" height="80" as="geometry" />
        </mxCell>
        <mxCell id="TaF8O7Wm-DNf2mMRTzkj-15" value="Начало" style="text;html=1;strokeColor=none;fillColor=none;align=center;verticalAlign=middle;whiteSpace=wrap;rounded=0;" vertex="1" parent="1">
          <mxGeometry x="285" y="70" width="110" height="20" as="geometry" />
        </mxCell>
        <mxCell id="TaF8O7Wm-DNf2mMRTzkj-16" value="int arr1*, int b, int e;&amp;nbsp;" style="text;html=1;strokeColor=none;fillColor=none;align=center;verticalAlign=middle;whiteSpace=wrap;rounded=0;" vertex="1" parent="1">
          <mxGeometry x="280" y="160" width="120" height="60" as="geometry" />
        </mxCell>
        <mxCell id="TaF8O7Wm-DNf2mMRTzkj-17" value="&lt;div&gt;&amp;nbsp;int p = arr1[(b + e) / 2];&lt;/div&gt;&lt;div&gt;&amp;nbsp; &amp;nbsp; int l = b, r = e, t;&lt;/div&gt;" style="text;html=1;strokeColor=none;fillColor=none;align=center;verticalAlign=middle;whiteSpace=wrap;rounded=0;" vertex="1" parent="1">
          <mxGeometry x="280" y="260" width="120" height="60" as="geometry" />
        </mxCell>
        <mxCell id="TaF8O7Wm-DNf2mMRTzkj-18" value="&lt;span lang=&quot;EN-US&quot; style=&quot;font-size: 9.5pt ; font-family: &amp;#34;consolas&amp;#34;&quot;&gt;for (; l &amp;lt;= r;)&lt;/span&gt;" style="text;html=1;strokeColor=none;fillColor=none;align=center;verticalAlign=middle;whiteSpace=wrap;rounded=0;" vertex="1" parent="1">
          <mxGeometry x="250" y="375" width="180" height="20" as="geometry" />
        </mxCell>
        <mxCell id="TaF8O7Wm-DNf2mMRTzkj-19" value="&lt;span lang=&quot;EN-US&quot; style=&quot;font-size: 9.5pt ; font-family: &amp;#34;consolas&amp;#34; ; color: blue&quot;&gt;for&lt;/span&gt;&lt;span lang=&quot;EN-US&quot; style=&quot;font-size: 9.5pt ; font-family: &amp;#34;consolas&amp;#34;&quot;&gt; (; &lt;/span&gt;&lt;span lang=&quot;EN-US&quot; style=&quot;font-size: 9.5pt ; font-family: &amp;#34;consolas&amp;#34; ; color: gray&quot;&gt;arr1&lt;/span&gt;&lt;span lang=&quot;EN-US&quot; style=&quot;font-size: 9.5pt ; font-family: &amp;#34;consolas&amp;#34;&quot;&gt;[l] &amp;lt; p;)&lt;/span&gt;" style="text;html=1;strokeColor=none;fillColor=none;align=center;verticalAlign=middle;whiteSpace=wrap;rounded=0;" vertex="1" parent="1">
          <mxGeometry x="260" y="455" width="160" height="20" as="geometry" />
        </mxCell>
        <mxCell id="TaF8O7Wm-DNf2mMRTzkj-20" value="l++;" style="text;html=1;strokeColor=none;fillColor=none;align=center;verticalAlign=middle;whiteSpace=wrap;rounded=0;" vertex="1" parent="1">
          <mxGeometry x="280" y="540" width="120" height="20" as="geometry" />
        </mxCell>
        <mxCell id="TaF8O7Wm-DNf2mMRTzkj-21" value="" style="shape=hexagon;perimeter=hexagonPerimeter2;whiteSpace=wrap;html=1;fixedSize=1;" vertex="1" parent="1">
          <mxGeometry x="240" y="600" width="200" height="50" as="geometry" />
        </mxCell>
        <mxCell id="TaF8O7Wm-DNf2mMRTzkj-22" value="" style="rounded=0;whiteSpace=wrap;html=1;" vertex="1" parent="1">
          <mxGeometry x="280" y="680" width="120" height="40" as="geometry" />
        </mxCell>
        <mxCell id="TaF8O7Wm-DNf2mMRTzkj-23" value="&lt;span lang=&quot;EN-US&quot; style=&quot;font-size: 9.5pt ; font-family: &amp;#34;consolas&amp;#34; ; color: blue&quot;&gt;for&lt;/span&gt;&lt;span lang=&quot;EN-US&quot; style=&quot;font-size: 9.5pt ; font-family: &amp;#34;consolas&amp;#34;&quot;&gt; (; &lt;/span&gt;&lt;span lang=&quot;EN-US&quot; style=&quot;font-size: 9.5pt ; font-family: &amp;#34;consolas&amp;#34; ; color: gray&quot;&gt;arr1&lt;/span&gt;&lt;span lang=&quot;EN-US&quot; style=&quot;font-size: 9.5pt ; font-family: &amp;#34;consolas&amp;#34;&quot;&gt;[r] &amp;gt; p;)&lt;/span&gt;" style="text;html=1;strokeColor=none;fillColor=none;align=center;verticalAlign=middle;whiteSpace=wrap;rounded=0;" vertex="1" parent="1">
          <mxGeometry x="250" y="615" width="180" height="20" as="geometry" />
        </mxCell>
        <mxCell id="TaF8O7Wm-DNf2mMRTzkj-24" value="r++;" style="text;html=1;strokeColor=none;fillColor=none;align=center;verticalAlign=middle;whiteSpace=wrap;rounded=0;" vertex="1" parent="1">
          <mxGeometry x="280" y="690" width="120" height="20" as="geometry" />
        </mxCell>
      </root>
    </mxGraphModel>
  </diagram>
</mxfile>
